<mxfile host="app.diagrams.net" agent="Mozilla/5.0 (X11; Linux x86_64) AppleWebKit/537.36 (KHTML, like Gecko) Chrome/126.0.6478.1124 YaBrowser/24.7.1.1124 Yowser/2.5 Safari/537.36" version="26.2.13">
  <diagram name="Страница — 1" id="71XvqlFOY5uaVvVxVcLu">
    <mxGraphModel dx="1775" dy="588" grid="1" gridSize="10" guides="1" tooltips="1" connect="1" arrows="1" fold="1" page="1" pageScale="1" pageWidth="827" pageHeight="1169" math="0" shadow="0">
      <root>
        <mxCell id="0" />
        <mxCell id="1" parent="0" />
        <mxCell id="1h9SFyMq9PNmET9vcSfO-1" value="&lt;font style=&quot;font-size: 14px;&quot; face=&quot;Times New Roman&quot;&gt;Управление академическими задолженностями&lt;/font&gt;" style="rounded=0;whiteSpace=wrap;html=1;" parent="1" vertex="1">
          <mxGeometry x="140" y="360" width="330" height="180" as="geometry" />
        </mxCell>
        <mxCell id="1h9SFyMq9PNmET9vcSfO-2" value="" style="endArrow=classic;html=1;rounded=0;entryX=0.006;entryY=0.139;entryDx=0;entryDy=0;entryPerimeter=0;" parent="1" edge="1">
          <mxGeometry width="50" height="50" relative="1" as="geometry">
            <mxPoint x="-181" y="385" as="sourcePoint" />
            <mxPoint x="140.98000000000002" y="385.02" as="targetPoint" />
          </mxGeometry>
        </mxCell>
        <mxCell id="1h9SFyMq9PNmET9vcSfO-3" value="" style="endArrow=classic;html=1;rounded=0;entryX=-0.003;entryY=0.444;entryDx=0;entryDy=0;entryPerimeter=0;" parent="1" edge="1">
          <mxGeometry width="50" height="50" relative="1" as="geometry">
            <mxPoint x="-179.01" y="490.08" as="sourcePoint" />
            <mxPoint x="140.00000000000023" y="490.00000000000006" as="targetPoint" />
          </mxGeometry>
        </mxCell>
        <mxCell id="1h9SFyMq9PNmET9vcSfO-5" value="&lt;font style=&quot;font-size: 14px;&quot; face=&quot;Times New Roman&quot;&gt;Список студентов&lt;/font&gt;" style="text;html=1;align=center;verticalAlign=middle;whiteSpace=wrap;rounded=0;" parent="1" vertex="1">
          <mxGeometry x="-110" y="360" width="200" height="30" as="geometry" />
        </mxCell>
        <mxCell id="1h9SFyMq9PNmET9vcSfO-7" value="" style="endArrow=classic;html=1;rounded=0;exitX=1.006;exitY=0.144;exitDx=0;exitDy=0;exitPerimeter=0;" parent="1" edge="1">
          <mxGeometry width="50" height="50" relative="1" as="geometry">
            <mxPoint x="470.98" y="385.9200000000001" as="sourcePoint" />
            <mxPoint x="760" y="386" as="targetPoint" />
          </mxGeometry>
        </mxCell>
        <mxCell id="1h9SFyMq9PNmET9vcSfO-8" value="" style="endArrow=classic;html=1;rounded=0;exitX=0.991;exitY=0.45;exitDx=0;exitDy=0;exitPerimeter=0;" parent="1" edge="1">
          <mxGeometry width="50" height="50" relative="1" as="geometry">
            <mxPoint x="470.02999999999975" y="441" as="sourcePoint" />
            <mxPoint x="760" y="440" as="targetPoint" />
          </mxGeometry>
        </mxCell>
        <mxCell id="1h9SFyMq9PNmET9vcSfO-9" value="" style="endArrow=classic;html=1;rounded=0;exitX=1;exitY=0.75;exitDx=0;exitDy=0;" parent="1" edge="1">
          <mxGeometry width="50" height="50" relative="1" as="geometry">
            <mxPoint x="470" y="495" as="sourcePoint" />
            <mxPoint x="760" y="495" as="targetPoint" />
          </mxGeometry>
        </mxCell>
        <mxCell id="1h9SFyMq9PNmET9vcSfO-10" value="&lt;font style=&quot;font-size: 14px;&quot; face=&quot;Times New Roman&quot;&gt;Идентификация студентов&lt;/font&gt;" style="text;html=1;align=center;verticalAlign=middle;whiteSpace=wrap;rounded=0;" parent="1" vertex="1">
          <mxGeometry x="479" y="360" width="260" height="30" as="geometry" />
        </mxCell>
        <mxCell id="1h9SFyMq9PNmET9vcSfO-11" value="&lt;font face=&quot;Times New Roman&quot;&gt;&lt;span style=&quot;font-size: 14px;&quot;&gt;Наличие академических задолженностях&lt;/span&gt;&lt;/font&gt;" style="text;html=1;align=center;verticalAlign=middle;whiteSpace=wrap;rounded=0;" parent="1" vertex="1">
          <mxGeometry x="-135" y="460" width="250" height="30" as="geometry" />
        </mxCell>
        <mxCell id="1h9SFyMq9PNmET9vcSfO-12" value="&lt;font style=&quot;font-size: 14px;&quot; face=&quot;Times New Roman&quot;&gt;Сроки ликвидации академической задолженности&lt;/font&gt;" style="text;html=1;align=center;verticalAlign=middle;whiteSpace=wrap;rounded=0;" parent="1" vertex="1">
          <mxGeometry x="-157.5" y="220" width="315" height="30" as="geometry" />
        </mxCell>
        <mxCell id="1h9SFyMq9PNmET9vcSfO-13" value="" style="endArrow=classic;html=1;rounded=0;" parent="1" edge="1">
          <mxGeometry width="50" height="50" relative="1" as="geometry">
            <mxPoint x="210" y="140" as="sourcePoint" />
            <mxPoint x="210" y="360" as="targetPoint" />
          </mxGeometry>
        </mxCell>
        <mxCell id="1h9SFyMq9PNmET9vcSfO-14" value="" style="endArrow=classic;html=1;rounded=0;" parent="1" edge="1">
          <mxGeometry width="50" height="50" relative="1" as="geometry">
            <mxPoint x="330" y="140" as="sourcePoint" />
            <mxPoint x="330" y="360" as="targetPoint" />
          </mxGeometry>
        </mxCell>
        <mxCell id="1h9SFyMq9PNmET9vcSfO-15" value="" style="endArrow=classic;html=1;rounded=0;entryX=0.848;entryY=0;entryDx=0;entryDy=0;entryPerimeter=0;" parent="1" edge="1">
          <mxGeometry width="50" height="50" relative="1" as="geometry">
            <mxPoint x="446.16" y="140" as="sourcePoint" />
            <mxPoint x="446.00000000000017" y="360" as="targetPoint" />
          </mxGeometry>
        </mxCell>
        <mxCell id="1h9SFyMq9PNmET9vcSfO-16" value="&lt;font face=&quot;Times New Roman&quot;&gt;&lt;span style=&quot;font-size: 14px;&quot;&gt;ФЗ от 29.12.2012 №273 «Об образовании в Российской Федерации»&lt;/span&gt;&lt;/font&gt;" style="text;html=1;align=center;verticalAlign=middle;whiteSpace=wrap;rounded=0;" parent="1" vertex="1">
          <mxGeometry x="336" y="210" width="110" height="30" as="geometry" />
        </mxCell>
        <mxCell id="1h9SFyMq9PNmET9vcSfO-20" value="&lt;font style=&quot;font-size: 14px;&quot; face=&quot;Times New Roman&quot;&gt;Устав ЧОУВО «Московский Университет имени С.Ю.Витте»&lt;/font&gt;" style="text;html=1;align=center;verticalAlign=middle;whiteSpace=wrap;rounded=0;" parent="1" vertex="1">
          <mxGeometry x="214" y="210" width="110" height="30" as="geometry" />
        </mxCell>
        <mxCell id="1h9SFyMq9PNmET9vcSfO-22" value="&lt;font face=&quot;Times New Roman&quot; style=&quot;font-size: 14px;&quot;&gt;Положение о ликвидации академической задолженности обучающихся&amp;nbsp;&lt;span class=&quot;docData;DOCY;v5;979;BQiAAgAAEYQCAAAGiAIAAAM6AwAABUgDAAAAAAAAAAAAAAAAAAAAAAAAAAAAAAAAAAAAAAAAAAAAAAAAAAAAAAAAAAAAAAAAAAAAAAAAAAAAAAAAAAAAAAAAAAAAAAAAAAAAAAAAAAAAAAAAAAAAAAAAAAAAAAAAAAAAAAAAAAAAAAAAAAAAAAAAAAAAAAAAAAAAAAAAAAAAAAAAAAAAAAAAAAAAAAAAAAAAAAAAAAAAAAAAAAAAAAAAAAAAAAAAAAAAAAAAAAAAAAAAAAAAAAAAAAAAAAAAAAAAAAAAAAAAAAAAAAAAAAAAAAAAAAAAAAAAAAAAAAAAAAAAAAAAAAAAAAAAAAAAAAAAAAAAAAAAAAAAAAAAAAAAAAAAAAAAAAAAAAAAAAAAAAAAAAAAAAAAAAAAAAAAAAAAAAAAAAAAAAAAAAAAAAAAAAAAAAAAAAAAAAAAAAAAAAAAAAAAAAAAAAAAAAAAAAAAAAAAAAAAAAAAAAAAAAAAAAAAAAAAAAAAAAAAAAAAAAAAAAAAAAAAAAAAAAAAAAAAAAAAAAAAAAAAAAAAAAAAAAAAAAAAAAAAAAAAAAAAAAAAAAAAAAAAAAAAAAAAAAAAAAAAAAAAAAAAAAAAAAAAAAAAAAAAAAAAAAAAAAAAAAAAAAAAAAAAAAAAAAAAAAAAAAAAAAAAAAAAAAAAAAAAAAAAAAAAAAAAAAAAAAAAAAAAAAAAAAAAAAAAAAAAAAAAAAAAAAAAAAAAAAAAAAAAAAAAAAAAAAAAAAAAAAAAAAAAAAAAAAAAAAAAAAAAAAAAAAAAAAAAAAAAAAAAAAAAAAAAAAAAAAAAAAAAAAAAAAAAAAAAAAAAAAAAAAAArgAAAACpAAAAAUQAAAABBgYAAAAmBMUCAAAFAQMJBgkAAAAnBGgBAAALAQEaBhoAAAAIBBwAAAAJAwAAABYEHAAAABwGAwAAAAEBDxsGAAAAAAJbAAAABTgAAAABHQAAAAgEHAAAAAkDAAAADAEAFgQcAAAAHAYDAAAAAQEPCBEAAAAADAAAAKsAHAQjBBgEEgS7AAUKAAAAAQAAAAAIAAAAAAUKAAAACAUAAAANAAAAAAoAAAAAAAAAABEAAAAAhwAAAAAtAAAAAQYAAAAACQYbAAAAJwQDAQAACwEBHAEAKAQAAAAAHQEAKQSgAAAAGwYAAAAAAUsAAAAoAQcpAQcqAQcrAQUTAQEIBBYAAAAWBBYAAAAZBgoAAAByAHUALQBSAFUAGgYKAAAAYQByAC0AUwBBABsGCgAAAGUAbgAtAFUAUwACAAAAAA==&quot; style=&quot;&quot;&gt;«МУИВ»&lt;/span&gt;&lt;/font&gt;" style="text;html=1;align=center;verticalAlign=middle;whiteSpace=wrap;rounded=0;" parent="1" vertex="1">
          <mxGeometry x="446" y="210" width="200" height="30" as="geometry" />
        </mxCell>
        <mxCell id="1h9SFyMq9PNmET9vcSfO-24" value="" style="endArrow=classic;html=1;rounded=0;entryX=0.061;entryY=0.983;entryDx=0;entryDy=0;entryPerimeter=0;" parent="1" edge="1">
          <mxGeometry width="50" height="50" relative="1" as="geometry">
            <mxPoint x="149" y="720" as="sourcePoint" />
            <mxPoint x="149.1300000000001" y="539.94" as="targetPoint" />
          </mxGeometry>
        </mxCell>
        <mxCell id="1h9SFyMq9PNmET9vcSfO-26" value="" style="endArrow=classic;html=1;rounded=0;entryX=0.303;entryY=1;entryDx=0;entryDy=0;entryPerimeter=0;" parent="1" edge="1">
          <mxGeometry width="50" height="50" relative="1" as="geometry">
            <mxPoint x="219" y="720" as="sourcePoint" />
            <mxPoint x="218.98999999999978" y="540" as="targetPoint" />
          </mxGeometry>
        </mxCell>
        <mxCell id="1h9SFyMq9PNmET9vcSfO-27" value="&lt;font style=&quot;font-size: 14px;&quot; face=&quot;Times New Roman&quot;&gt;Студенты&lt;/font&gt;" style="text;html=1;align=center;verticalAlign=middle;whiteSpace=wrap;rounded=0;" parent="1" vertex="1">
          <mxGeometry x="153" y="620" width="60" height="30" as="geometry" />
        </mxCell>
        <mxCell id="1h9SFyMq9PNmET9vcSfO-28" value="&lt;font style=&quot;font-size: 14px;&quot; face=&quot;Times New Roman&quot;&gt;Преподаватели&lt;/font&gt;" style="text;html=1;align=center;verticalAlign=middle;whiteSpace=wrap;rounded=0;" parent="1" vertex="1">
          <mxGeometry x="239" y="620" width="60" height="30" as="geometry" />
        </mxCell>
        <mxCell id="1h9SFyMq9PNmET9vcSfO-29" value="&lt;font style=&quot;font-size: 14px;&quot; face=&quot;Times New Roman&quot;&gt;Ликвидация академических задолженностей&lt;/font&gt;" style="text;html=1;align=center;verticalAlign=middle;whiteSpace=wrap;rounded=0;" parent="1" vertex="1">
          <mxGeometry x="470" y="468" width="290" height="30" as="geometry" />
        </mxCell>
        <mxCell id="1h9SFyMq9PNmET9vcSfO-30" value="&lt;font face=&quot;Times New Roman&quot;&gt;&lt;span style=&quot;font-size: 14px;&quot;&gt;Отчетная информация по академическим задолженностям&lt;/span&gt;&lt;/font&gt;" style="text;html=1;align=center;verticalAlign=middle;whiteSpace=wrap;rounded=0;" parent="1" vertex="1">
          <mxGeometry x="470" y="404" width="290" height="30" as="geometry" />
        </mxCell>
        <mxCell id="1h9SFyMq9PNmET9vcSfO-32" value="" style="endArrow=classic;html=1;rounded=0;entryX=0.63;entryY=1;entryDx=0;entryDy=0;entryPerimeter=0;" parent="1" edge="1">
          <mxGeometry width="50" height="50" relative="1" as="geometry">
            <mxPoint x="320" y="720" as="sourcePoint" />
            <mxPoint x="319.9000000000001" y="540" as="targetPoint" />
          </mxGeometry>
        </mxCell>
        <mxCell id="1h9SFyMq9PNmET9vcSfO-33" value="&lt;font style=&quot;font-size: 14px;&quot; face=&quot;Times New Roman&quot;&gt;Декан&lt;/font&gt;" style="text;html=1;align=center;verticalAlign=middle;whiteSpace=wrap;rounded=0;" parent="1" vertex="1">
          <mxGeometry x="316" y="620" width="60" height="30" as="geometry" />
        </mxCell>
        <mxCell id="1h9SFyMq9PNmET9vcSfO-34" value="" style="endArrow=classic;html=1;rounded=0;entryX=0.788;entryY=1;entryDx=0;entryDy=0;entryPerimeter=0;" parent="1" edge="1">
          <mxGeometry width="50" height="50" relative="1" as="geometry">
            <mxPoint x="376" y="720" as="sourcePoint" />
            <mxPoint x="376.03999999999996" y="540" as="targetPoint" />
          </mxGeometry>
        </mxCell>
        <mxCell id="1h9SFyMq9PNmET9vcSfO-35" value="&lt;font style=&quot;font-size: 14px;&quot; face=&quot;Times New Roman&quot;&gt;Ректор&lt;/font&gt;" style="text;html=1;align=center;verticalAlign=middle;whiteSpace=wrap;rounded=0;" parent="1" vertex="1">
          <mxGeometry x="374" y="620" width="60" height="30" as="geometry" />
        </mxCell>
        <mxCell id="1h9SFyMq9PNmET9vcSfO-37" value="" style="endArrow=classic;html=1;rounded=0;entryX=0.906;entryY=1.017;entryDx=0;entryDy=0;entryPerimeter=0;" parent="1" edge="1">
          <mxGeometry width="50" height="50" relative="1" as="geometry">
            <mxPoint x="439" y="718" as="sourcePoint" />
            <mxPoint x="438.98" y="541.06" as="targetPoint" />
          </mxGeometry>
        </mxCell>
        <mxCell id="1h9SFyMq9PNmET9vcSfO-38" value="&lt;font face=&quot;Times New Roman&quot;&gt;&lt;span style=&quot;font-size: 14px;&quot;&gt;Заведующие кафедр&lt;/span&gt;&lt;/font&gt;" style="text;html=1;align=center;verticalAlign=middle;whiteSpace=wrap;rounded=0;" parent="1" vertex="1">
          <mxGeometry x="449" y="620" width="60" height="30" as="geometry" />
        </mxCell>
        <mxCell id="CTbC-ZEKR2ZN7XLM5YSv-1" value="" style="endArrow=classic;html=1;rounded=0;" parent="1" edge="1">
          <mxGeometry width="50" height="50" relative="1" as="geometry">
            <mxPoint x="170" y="140" as="sourcePoint" />
            <mxPoint x="170" y="360" as="targetPoint" />
          </mxGeometry>
        </mxCell>
        <mxCell id="d5LMg1urKlQolIQ_PNpv-1" value="" style="endArrow=classic;html=1;rounded=0;entryX=0.006;entryY=0.139;entryDx=0;entryDy=0;entryPerimeter=0;" parent="1" edge="1">
          <mxGeometry width="50" height="50" relative="1" as="geometry">
            <mxPoint x="-181.98" y="439" as="sourcePoint" />
            <mxPoint x="140.00000000000003" y="439.02" as="targetPoint" />
          </mxGeometry>
        </mxCell>
        <mxCell id="d5LMg1urKlQolIQ_PNpv-2" value="&lt;font face=&quot;Times New Roman&quot;&gt;&lt;span style=&quot;font-size: 14px;&quot;&gt;Справка об академической задолженности&lt;/span&gt;&lt;/font&gt;" style="text;html=1;align=center;verticalAlign=middle;whiteSpace=wrap;rounded=0;" parent="1" vertex="1">
          <mxGeometry x="-157.5" y="404" width="310" height="30" as="geometry" />
        </mxCell>
      </root>
    </mxGraphModel>
  </diagram>
</mxfile>
